# xmcd CD database file
#
# Track frame offsets:
#	150
#	16050
#	31155
#
# Disc length: 493 seconds
#
# Revision: 1
# Processed by: cddbd v1.5.1PL0 Copyright (c) Steve Scherf et al.
# Submitted via: CDex 1.51
#
DISCID=1301eb03
DTITLE=Hayden - Bad As They Seem
DYEAR=1996
DGENRE=Rock
TTITLE0=Bad As They Seem
TTITLE1=I Almost Cried
TTITLE2=Hazy
EXTD=YEAR: 1996
EXTT0=
EXTT1=
EXTT2=
PLAYORDER=
